<svg id="visual" viewBox="0 0 900 600" width="900" height="600" xmlns="http://www.w3.org/2000/svg" xmlns:xlink="http://www.w3.org/1999/xlink" version="1.1"><rect x="0" y="0" width="900" height="600" fill="#6c0f36"></rect><path d="M445 0L569 0L569 55L562 55L562 109L512 109L512 164L440 164L440 218L556 218L556 273L499 273L499 327L502 327L502 382L431 382L431 436L459 436L459 491L565 491L565 545L515 545L515 600L0 600L0 545L0 545L0 491L0 491L0 436L0 436L0 382L0 382L0 327L0 327L0 273L0 273L0 218L0 218L0 164L0 164L0 109L0 109L0 55L0 55L0 0L0 0Z" fill="#001122"></path><path d="M424 0L308 0L308 55L367 55L367 109L413 109L413 164L314 164L314 218L367 218L367 273L317 273L317 327L400 327L400 382L409 382L409 436L358 436L358 491L311 491L311 545L351 545L351 600L0 600L0 545L0 545L0 491L0 491L0 436L0 436L0 382L0 382L0 327L0 327L0 273L0 273L0 218L0 218L0 164L0 164L0 109L0 109L0 55L0 55L0 0L0 0Z" fill="#05182b"></path><path d="M198 0L187 0L187 55L274 55L274 109L187 109L187 164L220 164L220 218L193 218L193 273L205 273L205 327L312 327L312 382L307 382L307 436L283 436L283 491L311 491L311 545L242 545L242 600L0 600L0 545L0 545L0 491L0 491L0 436L0 436L0 382L0 382L0 327L0 327L0 273L0 273L0 218L0 218L0 164L0 164L0 109L0 109L0 55L0 55L0 0L0 0Z" fill="#091e33"></path><path d="M83 0L192 0L192 55L121 55L121 109L112 109L112 164L68 164L68 218L77 218L77 273L101 273L101 327L74 327L74 382L194 382L194 436L100 436L100 491L179 491L179 545L186 545L186 600L0 600L0 545L0 545L0 491L0 491L0 436L0 436L0 382L0 382L0 327L0 327L0 273L0 273L0 218L0 218L0 164L0 164L0 109L0 109L0 55L0 55L0 0L0 0Z" fill="#0e253c"></path></svg>