<svg id="visual" viewBox="0 0 900 600" width="900" height="600" xmlns="http://www.w3.org/2000/svg" xmlns:xlink="http://www.w3.org/1999/xlink" version="1.1"><rect x="0" y="0" width="900" height="600" fill="#6C0F36"></rect><path d="M405 600L442 600L442 545L288 545L288 491L240 491L240 436L445 436L445 382L384 382L384 327L433 327L433 273L252 273L252 218L415 218L415 164L364 164L364 109L470 109L470 55L327 55L327 0L900 0L900 55L900 55L900 109L900 109L900 164L900 164L900 218L900 218L900 273L900 273L900 327L900 327L900 382L900 382L900 436L900 436L900 491L900 491L900 545L900 545L900 600L900 600Z" fill="#001122"></path><path d="M592 600L471 600L471 545L620 545L620 491L513 491L513 436L411 436L411 382L618 382L618 327L512 327L512 273L512 273L512 218L463 218L463 164L414 164L414 109L528 109L528 55L538 55L538 0L900 0L900 55L900 55L900 109L900 109L900 164L900 164L900 218L900 218L900 273L900 273L900 327L900 327L900 382L900 382L900 436L900 436L900 491L900 491L900 545L900 545L900 600L900 600Z" fill="#031526"></path><path d="M715 600L655 600L655 545L771 545L771 491L653 491L653 436L754 436L754 382L614 382L614 327L767 327L767 273L704 273L704 218L640 218L640 164L609 164L609 109L660 109L660 55L711 55L711 0L900 0L900 55L900 55L900 109L900 109L900 164L900 164L900 218L900 218L900 273L900 273L900 327L900 327L900 382L900 382L900 436L900 436L900 491L900 491L900 545L900 545L900 600L900 600Z" fill="#05182b"></path></svg>