<svg id="visual" viewBox="0 0 900 600" width="900" height="600" xmlns="http://www.w3.org/2000/svg" xmlns:xlink="http://www.w3.org/1999/xlink" version="1.1"><rect x="0" y="0" width="900" height="600" fill="#6C0F36"></rect><path d="M516 600L544 600L544 545L424 545L424 491L387 491L387 436L546 436L546 382L499 382L499 327L537 327L537 273L396 273L396 218L523 218L523 164L484 164L484 109L566 109L566 55L455 55L455 0L900 0L900 55L900 55L900 109L900 109L900 164L900 164L900 218L900 218L900 273L900 273L900 327L900 327L900 382L900 382L900 436L900 436L900 491L900 491L900 545L900 545L900 600L900 600Z" fill="#001122"></path><path d="M660 600L567 600L567 545L682 545L682 491L599 491L599 436L520 436L520 382L681 382L681 327L599 327L599 273L598 273L598 218L560 218L560 164L522 164L522 109L611 109L611 55L619 55L619 0L900 0L900 55L900 55L900 109L900 109L900 164L900 164L900 218L900 218L900 273L900 273L900 327L900 327L900 382L900 382L900 436L900 436L900 491L900 491L900 545L900 545L900 600L900 600Z" fill="#031526"></path><path d="M756 600L709 600L709 545L800 545L800 491L708 491L708 436L787 436L787 382L678 382L678 327L797 327L797 273L748 273L748 218L698 218L698 164L674 164L674 109L713 109L713 55L753 55L753 0L900 0L900 55L900 55L900 109L900 109L900 164L900 164L900 218L900 218L900 273L900 273L900 327L900 327L900 382L900 382L900 436L900 436L900 491L900 491L900 545L900 545L900 600L900 600Z" fill="#05182b"></path></svg>